{"title":"ABCD 2 (2015) DvD Scr Rip - XviD - [1CD] - M-Subs - Team IcTv Ex","uid":12049048,"size":723758758,"categoryP":"video","categoryS":"movies","magnet":"?xt=urn:btih:704e7cfb19acdbbada66cd6c25d909eb196b3f30&amp;dn=ABCD+2+%282015%29+DvD+Scr+Rip+-+XviD+-+%5B1CD%5D+-+M-Subs+-+Team+IcTv+Ex&amp;tr=udp%3A%2F%2Ftracker.openbittorrent.com%3A80&amp;tr=udp%3A%2F%2Fopen.demonii.com%3A1337&amp;tr=udp%3A%2F%2Ftracker.coppersurfer.tk%3A6969&amp;tr=udp%3A%2F%2Fexodus.desync.com%3A6969","seeders":2,"leechers":1,"uploader":"SS132203","files":2,"time":1434962836,"description":"ABCD 2 (2015) DvD Scr Rip - XviD - [1CD] - M-Subs - Team IcTv Exclusive\n &lt;a href=&quot;\nhttp://imgsparrow.co/image/47&quot; rel=&quot;nofollow&quot; target=&quot;_NEW&quot;&gt;\nhttp://imgsparrow.co/image/47&lt;/a&gt;\n &lt;a href=&quot;\nhttp://imgsparrow.co/image/QS&quot; rel=&quot;nofollow&quot; target=&quot;_NEW&quot;&gt;\nhttp://imgsparrow.co/image/QS&lt;/a&gt;\n\nInfo : - \n\nAll Credit Goes To Intellect Clever &amp; IcTv (Thank Them Not Me)\n\nFormat : AVI\nFormat/Info : Audio Video Interleave\nFile size : 690 MiB\nDuration : 2h 24mn\nOverall bit rate : 668 Kbps\n\nVideo\nID : 0\nFormat : MPEG-4 Visual\nFormat profile : Advanced Simple@L5\nFormat settings, BVOP : 2\nFormat settings, QPel : No\nFormat settings, GMC : No warppoints\nFormat settings, Matrix : Default (H.263)\nCodec ID : XVID\nCodec ID/Hint : XviD\nDuration : 2h 24mn\nBit rate : 533 Kbps\nWidth : 640 pixels\nHeight : 252 pixels\nDisplay aspect ratio : 2.540\nFrame rate : 29.970 fps\nColor space : YUV\nChroma subsampling : 4:2:0\nBit depth : 8 bits\nScan type : Progressive\nCompression mode : Lossy\nBits/(Pixel*Frame) : 0.110\nStream size : 550 MiB (80%)\nWriting library : XviD 1.2.1 (UTC 2008-12-04)\n\nAudio\nID : 1\nFormat : MPEG Audio\nFormat version : Version 1\nFormat profile : Layer 3\nMode : Joint stereo\nMode extension : MS Stereo\nCodec ID : 55\nCodec ID/Hint : MP3\nDuration : 2h 24mn\nBit rate mode : Constant\nBit rate : 128 Kbps\nChannel(s) : 2 channels\nSampling rate : 48.0 KHz\nCompression mode : Lossy\nStream size : 132 MiB (19%)\nAlignment : Aligned on interleaves\nInterleave, duration : 133 ms (4.00 video frames)\nInterleave, preload duration : 216 ms\nTitle : VTS_01_1 T80 2_0ch 192Kbps DELAY 0ms\nWriting library : LAME3.99r\nEncoding settings : -m j -V 4 -q 2 -lowpass 17 -b 128\n\nText #1\nID : 2\nDuration : 2h 24mn\nBit rate : 26 bps\nStream size : 27.1 KiB (0%)\nTitle : English\n\nText #2\nID : 3\nDuration : 2h 24mn\nBit rate : 27 bps\nStream size : 28.6 KiB (0%)\nTitle : Dutch\n\nText #3\nID : 4\nDuration : 2h 24mn\nBit rate : 29 bps\nStream size : 30.6 KiB (0%)\nTitle : French\n\nText #4\nID : 5\nDuration : 2h 24mn\nBit rate : 28 bps\nStream size : 29.5 KiB (0%)\nTitle : German\n\nText #5\nID : 6\nDuration : 2h 24mn\nBit rate : 27 bps\nStream size : 29.0 KiB (0%)\nTitle : Italian\n\nText #6\nID : 7\nDuration : 2h 24mn\nBit rate : 28 bps\nStream size : 29.7 KiB (0%)\nTitle : Portguese\n\nText #7\nID : 8\nDuration : 2h 24mn\nBit rate : 28 bps\nStream size : 29.2 KiB (0%)\nTitle : Spanish\n\nScreens : - \n &lt;a href=&quot;\nhttp://imgsparrow.co/image/fF&quot; rel=&quot;nofollow&quot; target=&quot;_NEW&quot;&gt;\nhttp://imgsparrow.co/image/fF&lt;/a&gt; &lt;a href=&quot;\nhttp://imgsparrow.co/image/fO&quot; rel=&quot;nofollow&quot; target=&quot;_NEW&quot;&gt;\nhttp://imgsparrow.co/image/fO&lt;/a&gt; &lt;a href=&quot;\nhttp://imgsparrow.co/image/fp&quot; rel=&quot;nofollow&quot; target=&quot;_NEW&quot;&gt;\nhttp://imgsparrow.co/image/fp&lt;/a&gt; &lt;a href=&quot;\nhttp://imgsparrow.co/image/f0&quot; rel=&quot;nofollow&quot; target=&quot;_NEW&quot;&gt;\nhttp://imgsparrow.co/image/f0&lt;/a&gt; &lt;a href=&quot;\nhttp://imgsparrow.co/image/fB&quot; rel=&quot;nofollow&quot; target=&quot;_NEW&quot;&gt;\nhttp://imgsparrow.co/image/fB&lt;/a&gt; &lt;a href=&quot;\nhttp://imgsparrow.co/image/fK&quot; rel=&quot;nofollow&quot; target=&quot;_NEW&quot;&gt;\nhttp://imgsparrow.co/image/fK&lt;/a&gt; &lt;a href=&quot;\nhttp://imgsparrow.co/image/f2&quot; rel=&quot;nofollow&quot; target=&quot;_NEW&quot;&gt;\nhttp://imgsparrow.co/image/f2&lt;/a&gt; &lt;a href=&quot;\nhttp://imgsparrow.co/image/f3&quot; rel=&quot;nofollow&quot; target=&quot;_NEW&quot;&gt;\nhttp://imgsparrow.co/image/f3&lt;/a&gt; &lt;a href=&quot;\nhttp://imgsparrow.co/image/fi&quot; rel=&quot;nofollow&quot; target=&quot;_NEW&quot;&gt;\nhttp://imgsparrow.co/image/fi&lt;/a&gt; &lt;a href=&quot;\nhttp://imgsparrow.co/image/fV&quot; rel=&quot;nofollow&quot; target=&quot;_NEW&quot;&gt;\nhttp://imgsparrow.co/image/fV&lt;/a&gt;\n &lt;a href=&quot;\nhttp://imgsparrow.co/image/N2&quot; rel=&quot;nofollow&quot; target=&quot;_NEW&quot;&gt;\nhttp://imgsparrow.co/image/N2&lt;/a&gt;","torrent":{"xt":"urn:btih:704e7cfb19acdbbada66cd6c25d909eb196b3f30","amp;dn":"ABCD+2+%282015%29+DvD+Scr+Rip+-+XviD+-+%5B1CD%5D+-+M-Subs+-+Team+IcTv+Ex","amp;tr":["udp%3A%2F%2Ftracker.openbittorrent.com%3A80","udp%3A%2F%2Fopen.demonii.com%3A1337","udp%3A%2F%2Ftracker.coppersurfer.tk%3A6969","udp%3A%2F%2Fexodus.desync.com%3A6969"],"infoHash":"704e7cfb19acdbbada66cd6c25d909eb196b3f30","infoHashBuffer":{"type":"Buffer","data":[112,78,124,251,25,172,219,186,218,102,205,108,37,217,9,235,25,107,63,48]},"announce":[],"urlList":[]}}